#!OML:ASF E:\motion texture\Top Level 1\Subject 1\Session 1\male.ASF
:FULLY-SPECIFIED
:DEGREES
96
root 18.9978 17.5221 6.59195 101.072 -79.1969 -92.6614
lowerback -2.64249 2.59563 7.33195
upperback -2.94487 3.28402 2.04732
thorax -1.27238 1.49487 -1.92658
lowerneck -12.765 -4.22197 -7.29293
upperneck 12.6956 -4.53997 1.17854
head 6.149 -2.47648 1.13984
rclavicle 2.07854e-014 3.02153e-014
rhumerus -24.6211 8.99927 -86.4134
rradius 60.4888
rwrist -10.7781
rhand -16.7211 -37.4136
rfingers 7.12502
rthumb 9.50446 -67.1793
lclavicle 2.07854e-014 3.02153e-014
lhumerus -37.0802 7.58929 84.6963
lradius 70.0909
lwrist 12.854
lhand -16.0838 44.9974
lfingers 7.12502
lthumb 10.1193 74.734
rfemur 1.40146 4.91826 36.846
rtibia 21.5001
rfoot -16.2461 -9.70281
rtoes -5.01369
lfemur -32.7808 -2.32637 -3.35343
ltibia 15.9013
lfoot -3.21717 7.29901
ltoes -10.9947
97
root 18.8399 17.5099 6.60457 101.549 -79.2406 -93.2488
lowerback -2.57242 2.63598 7.1891
upperback -2.91096 3.34847 1.9438
thorax -1.27205 1.53142 -1.95507
lowerneck -12.8463 -4.2088 -7.2674
upperneck 12.8655 -4.52842 1.22745
head 6.21676 -2.46841 1.14968
rclavicle 1.41634e-015 -3.02153e-014
rhumerus -24.6454 8.85881 -86.5205
rradius 60.0435
rwrist -10.8014
rhand -16.4588 -37.3299
rfingers 7.12502
rthumb 9.75749 -67.0839
lclavicle 1.41634e-015 -3.02153e-014
lhumerus -36.8402 7.40295 84.8488
lradius 70.0627
lwrist 11.7158
lhand -15.7483 44.5531
lfingers 7.12502
lthumb 10.443 74.2737
rfemur 1.4934 4.92485 36.735
rtibia 22.5776
rfoot -16.2458 -9.61654
rtoes -6.32126
lfemur -32.7275 -2.46452 -3.58653
ltibia 16.8804
lfoot -2.32425 7.50423
ltoes -10.7326
98
root 18.6802 17.5008 6.61728 102.034 -79.3797 -93.8508
lowerback -2.51234 2.67452 6.93489
upperback -2.87472 3.41169 1.81527
thorax -1.26818 1.56971 -1.94736
lowerneck -12.9236 -4.20599 -7.24131
upperneck 13.0413 -4.53278 1.28314
head 6.28665 -2.46749 1.16014
rclavicle -4.58447e-015 -2.62396e-014
rhumerus -24.7062 8.60597 -86.5968
rradius 59.6305
rwrist -10.8329
rhand -16.2497 -37.2905
rfingers 7.12502
rthumb 9.95925 -67.0349
lclavicle -4.58447e-015 -2.62396e-014
lhumerus -36.5789 7.19401 85.0041
lradius 70.0387
lwrist 10.5929
lhand -15.3768 44.0454
lfingers 7.12502
lthumb 10.8013 73.7477
rfemur 1.52776 4.90575 36.508
rtibia 23.7558
rfoot -16.1552 -9.53408
rtoes -7.59302
lfemur -32.6217 -2.66489 -3.90321
ltibia 17.6644
lfoot -1.36158 7.54297
ltoes -10.5374
99
root 18.5179 17.4957 6.63037 102.663 -79.6212 -94.6022
lowerback -2.47563 2.71714 6.56816
upperback -2.8318 3.47993 1.65721
thorax -1.24843 1.61319 -1.90635
lowerneck -13.0098 -4.21298 -7.22671
upperneck 13.226 -4.55023 1.35444
head 6.36224 -2.47217 1.17594
rclavicle 7.01958e-015 3.49861e-014
rhumerus -24.7932 8.2472 -86.6393
rradius 59.2361
rwrist -10.8568
rhand -16.0904 -37.28
rfingers 7.12502
rthumb 10.1129 -67.017
lclavicle 7.01958e-015 3.49861e-014
lhumerus -36.2855 6.96267 85.1577
lradius 70.0091
lwrist 9.48947
lhand -14.8547 43.3878
lfingers 7.12502
lthumb 11.3049 73.0631
rfemur 1.49169 4.84063 36.1387
rtibia 25.0498
rfoot -15.9587 -9.41666
rtoes -8.79856
lfemur -32.4483 -2.87355 -4.3261
ltibia 18.2614
lfoot -0.401557 7.33604
ltoes -10.106
100
root 18.3537 17.4949 6.64371 103.249 -79.9436 -95.3057
lowerback -2.45802 2.75317 6.1159
upperback -2.79789 3.53933 1.47726
thorax -1.23193 1.6532 -1.83984
lowerneck -13.0731 -4.22749 -7.2221
upperneck 13.4156 -4.58079 1.44036
head 6.43676 -2.48264 1.19715
rclavicle -4.93234e-015 1.35174e-014
rhumerus -24.9152 7.79009 -86.6468
rradius 58.8448
rwrist -10.863
rhand -15.9633 -37.3054
rfingers 7.12502
rthumb 10.2355 -67.0364
lclavicle -4.93234e-015 1.35174e-014
lhumerus -35.9844 6.70075 85.3055
lradius 69.9743
lwrist 8.4025
lhand -14.1956 42.5932
lfingers 7.12502
lthumb 11.9405 72.2327
rfemur 1.36437 4.68613 35.6496
rtibia 26.4631
rfoot -15.6315 -9.25917
rtoes -9.89763
lfemur -32.2355 -3.05317 -4.85151
ltibia 18.757
lfoot 0.461044 6.86337
ltoes -9.19831
101
root 18.1878 17.498 6.65731 103.736 -80.2913 -95.9046
lowerback -2.45932 2.78126 5.64607
upperback -2.77083 3.58663 1.29025
thorax -1.21409 1.6869 -1.77005
lowerneck -13.1269 -4.24618 -7.23356
upperneck 13.6149 -4.61744 1.53945
head 6.51392 -2.49593 1.22468
rclavicle -2.0363e-014 -2.38542e-015
rhumerus -25.0564 7.23732 -86.6146
rradius 58.4456
rwrist -10.8366
rhand -15.8325 -37.3557
rfingers 7.12502
rthumb 10.3618 -67.0804
lclavicle -2.0363e-014 -2.38542e-015
lhumerus -35.6735 6.41468 85.4393
lradius 69.9396
lwrist 7.328
lhand -13.3754 41.6393
lfingers 7.12502
lthumb 12.7313 71.2312
rfemur 1.12595 4.41418 35.0942
rtibia 28.0084
rfoot -15.1379 -9.04308
rtoes -10.8725
lfemur -31.9992 -3.14709 -5.43449
ltibia 19.2612
lfoot 1.12496 6.21069
ltoes -7.78759
